# xmcd
# 
# Track frame offsets:
#     151
#     82702
#     101461
#     125475
#     143927
# 
# Disc length: 2547
# 
# Revision: 2
# Processed by: cddbd v1.5.2PL0 Copyright (c) Steve Scherf et al.
# Submitted via: BonkEnc v1.0.8
# 
DISCID=3609f105
DTITLE=Miles Davis - [1975.01.22] Another Unity - Tokyo
DYEAR=1975
DGENRE=Contemporary Jazz
TTITLE0=Ife
TTITLE1=Mtume
TTITLE2=Turnaroundphrase
TTITLE3=Tune In 5/Willie Nelson
TTITLE4=Untitled Tune
EXTD=YEAR: 2004
EXTT0=
EXTT1=
EXTT2=
EXTT3=
EXTT4=
PLAYORDER=
